<svg width="33" height="32" viewBox="0 0 33 32" fill="none" xmlns="http://www.w3.org/2000/svg">
<path d="M11.4662 13.2452V9.40999H6.02979V8.79716L12.8303 0.197689H13.8583V7.94709H16.2108V9.40999H13.8583V13.2452H11.4662ZM7.86829 7.94709H11.4662V3.34094L7.86829 7.94709Z" fill="black"/>
<path d="M21.3335 13.4231C19.4621 13.4231 18.1573 12.9091 17.4193 11.8811C17.3139 11.7098 17.2611 11.578 17.2611 11.4857C17.2611 11.3144 17.3798 11.1365 17.617 10.952L18.5066 10.2798H18.7438L18.9415 10.695C19.2446 11.3012 19.5807 11.7559 19.9497 12.059C20.3319 12.3753 20.8459 12.5335 21.4917 12.5335C22.2693 12.5335 22.8689 12.2897 23.2907 11.802C23.7124 11.3144 23.9233 10.7147 23.9233 10.0031C23.9233 9.00143 23.5674 8.21727 22.8557 7.65056C22.1572 7.07067 21.1095 6.78073 19.7125 6.78073L19.4357 5.93067H19.4753C20.1342 5.93067 20.7207 5.83182 21.2347 5.63413C21.7619 5.42327 22.1704 5.13991 22.4604 4.78407C22.7635 4.41505 22.915 3.98673 22.915 3.49909C22.915 2.89285 22.7437 2.41839 22.401 2.07573C22.0584 1.71989 21.551 1.54197 20.8788 1.54197C20.2462 1.54197 19.7257 1.70671 19.3171 2.0362C18.9085 2.36568 18.5725 2.82695 18.3089 3.42002L17.617 3.10372C18.0651 2.08891 18.6845 1.31793 19.4753 0.790756C20.266 0.263585 21.1095 0 22.0057 0C23.0732 0 23.9233 0.250406 24.5559 0.751217C25.2016 1.25203 25.5245 1.91099 25.5245 2.72811C25.5245 3.42661 25.2675 4.02626 24.7535 4.52708C24.2527 5.02789 23.6004 5.39032 22.7964 5.61436C24.0221 5.87795 24.9117 6.34581 25.4652 7.01796C26.0188 7.6901 26.2955 8.47426 26.2955 9.37045C26.2955 10.1349 26.0715 10.8202 25.6234 11.4264C25.1885 12.0458 24.5954 12.5335 23.8442 12.8893C23.093 13.2452 22.2561 13.4231 21.3335 13.4231Z" fill="black"/>
<path d="M7.30418 32V31.3443C8.98922 30.8543 10.3203 30.0529 11.2973 28.9403C12.2743 27.8276 12.8832 26.5097 13.1239 24.9865C12.7416 25.4501 12.2673 25.8143 11.7009 26.0792C11.1486 26.3441 10.5114 26.4766 9.78926 26.4766C9.02462 26.4766 8.3591 26.311 7.7927 25.9799C7.2263 25.6487 6.78734 25.1984 6.47582 24.6288C6.17846 24.046 6.02979 23.397 6.02979 22.6817C6.02979 21.9665 6.21386 21.2909 6.58202 20.6552C6.95018 20.0061 7.50242 19.4829 8.23874 19.0856C8.97506 18.6882 9.89546 18.4895 10.9999 18.4895C12.0053 18.4895 12.8832 18.7014 13.6337 19.1253C14.3842 19.5359 14.9647 20.1187 15.3754 20.8737C15.8002 21.6155 16.0126 22.4764 16.0126 23.4566C16.0126 24.8871 15.6586 26.1719 14.9506 27.3111C14.2426 28.4502 13.2372 29.4171 11.9345 30.2118C10.6459 31.0198 9.1025 31.6159 7.30418 32ZM8.7485 22.185C8.7485 23.0857 8.93258 23.7877 9.30074 24.2911C9.6689 24.7944 10.2353 25.0461 10.9999 25.0461C11.4672 25.0461 11.892 24.9467 12.2743 24.748C12.6567 24.5361 12.9752 24.258 13.2301 23.9136C13.2301 23.7811 13.2301 23.6487 13.2301 23.5162C13.2301 22.1519 13.0177 21.132 12.5929 20.4565C12.1681 19.7677 11.6159 19.4233 10.9362 19.4233C10.4265 19.4233 10.0087 19.5624 9.68306 19.8406C9.35738 20.1187 9.11666 20.4763 8.9609 20.9135C8.8193 21.3373 8.7485 21.7612 8.7485 22.185Z" fill="black"/>
<path d="M18.6279 29.2184V28.9005L21.1767 28.1058V19.8008L18.6279 19.0061V18.6882H26.2955V19.0061L23.7467 19.8008V28.1058L26.2955 28.9005V29.2184H18.6279Z" fill="black"/>
</svg>
