<svg width="33" height="32" viewBox="0 0 33 32" fill="none" xmlns="http://www.w3.org/2000/svg">
<path d="M13.3817 14.3688V12.0978H10.1626V11.735L14.1894 6.64294H14.7981V11.2316H16.1911V12.0978H14.7981V14.3688H13.3817ZM11.2512 11.2316H13.3817V8.50416L11.2512 11.2316Z" fill="black"/>
<path d="M19.2244 14.4741C18.1163 14.4741 17.3437 14.1698 16.9067 13.5611C16.8443 13.4596 16.813 13.3816 16.813 13.327C16.813 13.2255 16.8833 13.1201 17.0238 13.0109L17.5505 12.6129H17.691L17.808 12.8587C17.9875 13.2177 18.1865 13.4869 18.405 13.6664C18.6313 13.8537 18.9357 13.9474 19.3181 13.9474C19.7785 13.9474 20.1336 13.803 20.3833 13.5142C20.633 13.2255 20.7579 12.8704 20.7579 12.449C20.7579 11.8559 20.5472 11.3916 20.1258 11.056C19.7122 10.7127 19.0918 10.541 18.2646 10.541L18.1007 10.0376H18.1241C18.5143 10.0376 18.8616 9.97909 19.1659 9.86203C19.4781 9.73717 19.72 9.56939 19.8917 9.35868C20.0712 9.14018 20.1609 8.88655 20.1609 8.59781C20.1609 8.23883 20.0595 7.95789 19.8566 7.75499C19.6537 7.54429 19.3532 7.43893 18.9552 7.43893C18.5806 7.43893 18.2724 7.53648 18.0305 7.73158C17.7885 7.92667 17.5895 8.19981 17.4335 8.55098L17.0238 8.36369C17.2891 7.76279 17.6559 7.30627 18.1241 6.99411C18.5923 6.68196 19.0918 6.52588 19.6224 6.52588C20.2546 6.52588 20.7579 6.67415 21.1325 6.9707C21.5149 7.26725 21.7061 7.65744 21.7061 8.14128C21.7061 8.55489 21.5539 8.90996 21.2495 9.20651C20.953 9.50306 20.5667 9.71766 20.0907 9.85033C20.8164 10.0064 21.3432 10.2834 21.671 10.6814C21.9987 11.0794 22.1626 11.5438 22.1626 12.0744C22.1626 12.5271 22.0299 12.9329 21.7646 13.2918C21.5071 13.6586 21.1559 13.9474 20.7111 14.1581C20.2663 14.3688 19.7707 14.4741 19.2244 14.4741Z" fill="black"/>
<path d="M10.9172 25.4741V25.0859C11.915 24.7957 12.7031 24.3212 13.2817 23.6624C13.8602 23.0035 14.2207 22.2231 14.3633 21.3212C14.1369 21.5957 13.856 21.8114 13.5206 21.9682C13.1936 22.1251 12.8163 22.2035 12.3887 22.2035C11.9359 22.2035 11.5419 22.1055 11.2065 21.9094C10.8711 21.7133 10.6112 21.4467 10.4267 21.1094C10.2506 20.7643 10.1626 20.38 10.1626 19.9565C10.1626 19.5329 10.2716 19.1329 10.4896 18.7565C10.7076 18.3722 11.0346 18.0624 11.4706 17.8271C11.9066 17.5918 12.4516 17.4741 13.1056 17.4741C13.7009 17.4741 14.2207 17.5996 14.6651 17.8506C15.1095 18.0937 15.4533 18.4388 15.6964 18.8859C15.948 19.3251 16.0737 19.8349 16.0737 20.4153C16.0737 21.2624 15.8641 22.0231 15.4449 22.6977C15.0257 23.3722 14.4303 23.9447 13.659 24.4153C12.896 24.8937 11.9821 25.2467 10.9172 25.4741ZM11.7724 19.6624C11.7724 20.1957 11.8814 20.6114 12.0994 20.9094C12.3174 21.2075 12.6528 21.3565 13.1056 21.3565C13.3823 21.3565 13.6338 21.2977 13.8602 21.18C14.0866 21.0545 14.2752 20.8898 14.4262 20.6859C14.4262 20.6075 14.4262 20.529 14.4262 20.4506C14.4262 19.6427 14.3004 19.0388 14.0488 18.6388C13.7973 18.231 13.4703 18.0271 13.0679 18.0271C12.766 18.0271 12.5187 18.1094 12.3258 18.2741C12.133 18.4388 11.9904 18.6506 11.8982 18.9094C11.8144 19.1604 11.7724 19.4114 11.7724 19.6624Z" fill="black"/>
<path d="M17.6223 23.8271V23.6388L19.1316 23.1682V18.2506L17.6223 17.78V17.5918H22.1626V17.78L20.6534 18.2506V23.1682L22.1626 23.6388V23.8271H17.6223Z" fill="black"/>
</svg>
