<svg width="124" height="40" viewBox="0 0 124 40" fill="none" xmlns="http://www.w3.org/2000/svg">
<path d="M13.1737 39.1874V39.0826C14.0101 37.6671 14.5852 36.4613 14.8465 35.3604C15.1079 34.3119 15.2648 32.844 15.2648 31.0092V29.2267H0V28.3355L16.8331 0.812581H30.1113L2.82293 27.1822H15.2648V18.1127H26.7656V27.1822H32.0978L31.4705 29.2267H26.7656V31.0092C26.7656 32.8965 26.9224 34.3644 27.1838 35.4128C27.4452 36.4613 27.968 37.6671 28.8567 39.0826V39.1874H13.1737Z" fill="#181818"/>
<path d="M65.1017 24.8755C65.2586 25.6619 65.3108 26.4482 65.3108 27.3395C65.3108 28.3355 65.2063 29.2267 64.9972 30.118C64.7881 31.0092 64.4744 31.7955 64.1085 32.5819C63.7425 33.3683 63.2721 34.0498 62.697 34.6789C62.122 35.308 61.4424 35.8847 60.7105 36.4089C59.9786 36.9332 59.1945 37.405 58.3058 37.7719C57.4171 38.1913 56.4761 38.5059 55.4829 38.768C54.4896 39.0301 53.3918 39.2398 52.294 39.3971C51.1962 39.5544 49.9938 39.6068 48.7915 39.6068C46.5436 39.6068 44.4002 39.3971 42.466 38.9253C40.4795 38.4535 38.9112 37.9292 37.8134 37.2477L36.4542 26.6055L37.3429 26.3958C39.3817 29.8034 41.1068 32.5295 42.6228 34.6265C44.1388 36.7235 45.864 37.7719 47.8505 37.7719C49.7324 37.7719 51.2485 36.8283 52.4508 34.9935C53.6532 33.1586 54.2282 30.6422 54.2282 27.3919C54.2282 24.0891 53.6532 21.6252 52.4508 20C51.2485 18.3748 49.5756 17.5885 47.4845 17.5885C46.2822 17.5885 45.1321 17.7982 44.1388 18.2176C43.1456 18.6894 42.2046 19.1612 41.3159 19.7379L40.584 18.7942L53.1827 8.519H38.2316L41.6818 0.393184H64.8926V1.2844L47.38 15.4391C47.8505 15.3866 48.321 15.2818 48.8437 15.2294C49.3665 15.1769 49.8893 15.1769 50.4643 15.1769C51.1439 15.1769 51.8758 15.2294 52.5554 15.2818C53.235 15.3342 53.9668 15.4391 54.6464 15.5963C55.326 15.7536 56.0579 15.9633 56.7375 16.173C57.4171 16.4351 58.0444 16.6972 58.6717 16.9594C59.299 17.2739 59.9264 17.6409 60.5014 18.0079C61.0764 18.4273 61.5992 18.8467 62.0697 19.3185C62.5402 19.7903 63.0107 20.3145 63.4289 20.8912C63.7948 21.4679 64.1608 22.097 64.4221 22.7785C64.6835 23.46 64.9449 24.1415 65.1017 24.8755Z" fill="#181818"/>
<path d="M75.9404 40L75.6268 39.0564C76.5677 38.7418 77.4564 38.3748 78.2929 37.9554C79.1293 37.5885 79.9134 37.1166 80.6453 36.6448C81.3772 36.173 82.0568 35.5963 82.6841 35.0197C83.2591 34.443 83.8342 33.8663 84.3569 33.2372C84.8797 32.6081 85.3502 31.9266 85.8207 31.2451C86.2389 30.5636 86.6048 29.8296 86.9708 29.0957C87.3367 28.3617 87.6504 27.6278 87.9117 26.8414C88.1731 26.055 88.4345 25.3211 88.6436 24.5347C88.8527 23.7484 89.0096 23.0144 89.1664 22.228C88.5913 23.329 87.7026 24.2726 86.448 25.059C85.1934 25.8978 83.5205 26.3172 81.4817 26.3172C80.6976 26.3172 79.9134 26.2647 79.1293 26.1075C78.3451 25.9502 77.6133 25.7405 76.9337 25.4784C76.2541 25.2163 75.5745 24.8493 74.9472 24.4299C74.3198 24.0629 73.7448 23.5911 73.222 23.0144C72.647 22.4902 72.1765 21.9135 71.7583 21.232C71.2878 20.6029 70.9219 19.9214 70.6082 19.135C70.2945 18.3486 70.0854 17.5623 69.9286 16.671C69.7718 15.8322 69.6672 14.941 69.6672 13.945C69.6672 13.0013 69.7718 12.1101 69.9286 11.2713C70.0854 10.4325 70.3468 9.59371 70.7128 8.80734C71.0264 8.02097 71.4446 7.28702 71.9151 6.6055C72.3856 5.92399 72.9084 5.29489 73.4834 4.71822C74.0585 4.14155 74.7381 3.56488 75.4176 3.09305C76.0972 2.62123 76.8814 2.14941 77.6655 1.78244C78.4497 1.41547 79.2338 1.04849 80.1225 0.786369C81.0112 0.524246 81.8999 0.366974 82.8409 0.209699C83.7296 0.052424 84.6706 0 85.6116 0C86.7094 0 87.7026 0.104848 88.6959 0.262123C89.6369 0.419398 90.5256 0.681521 91.4143 0.996068C92.303 1.31061 93.0871 1.67759 93.8713 2.14941C94.6554 2.62123 95.335 3.1979 96.0146 3.77458C96.6419 4.35125 97.217 5.03277 97.792 5.71429C98.3148 6.39581 98.7853 7.12975 99.2035 7.91612C99.5694 8.70249 99.9354 9.54129 100.197 10.4325C100.458 11.3237 100.667 12.2149 100.824 13.1062C100.981 14.0498 101.033 14.9934 101.033 15.9895C101.033 16.671 100.981 17.405 100.929 18.0865C100.876 18.8204 100.72 19.5544 100.563 20.3408C100.406 21.1271 100.197 21.8611 99.9353 22.6474C99.674 23.4338 99.3603 24.1678 98.9944 24.9541C98.6284 25.7405 98.158 26.5269 97.6875 27.3132C97.217 28.0996 96.6419 28.8336 96.0146 29.5675C95.3873 30.3014 94.7077 31.0354 93.9235 31.7169C93.1394 32.4509 92.303 33.1324 91.362 33.8139C90.421 34.4954 89.4278 35.1245 88.33 35.7012C87.2321 36.2779 86.0821 36.8545 84.7751 37.3788C83.4682 37.903 82.109 38.3748 80.6453 38.7942C79.1816 39.2661 77.6133 39.633 75.9404 40ZM81.9522 4.66579C81.2203 6.6055 80.8544 9.27916 80.8544 12.7916C80.8544 16.4089 81.2726 18.9253 82.0568 20.4456C82.8409 21.9659 83.8864 22.6999 85.2979 22.6999C86.1866 22.6999 87.023 22.4377 87.8072 21.8611C88.5913 21.2844 89.2187 20.4456 89.5846 19.3447C89.6891 18.4535 89.7414 17.6147 89.7937 16.7759C89.846 15.9895 89.846 15.2031 89.846 14.4168C89.846 13.5256 89.846 12.6868 89.7937 11.9004C89.7414 11.114 89.6891 10.3277 89.6369 9.54129C89.5323 8.80734 89.4278 8.07339 89.2709 7.39188C89.1141 6.71036 88.9573 6.08126 88.8004 5.50459C88.5913 4.92792 88.3822 4.45609 88.1731 3.98427C87.9117 3.51245 87.6504 3.14548 87.3367 2.83093C87.023 2.51638 86.7094 2.25426 86.3434 2.09699C85.9775 1.93971 85.5593 1.83486 85.1411 1.83486C83.7296 1.83486 82.6318 2.77851 81.9522 4.66579Z" fill="#181818"/>
<path d="M124 39.7117H107.115V39.6068C108.317 38.1389 109.101 36.8283 109.467 35.675C109.833 34.5741 109.99 33.0013 109.99 31.0616V9.88205H105.39V8.99083C108.108 7.94233 110.722 6.73657 113.231 5.3211C115.74 3.95806 118.093 2.28047 120.288 0.288335H121.073V31.0616C121.073 31.5334 121.073 32.0052 121.125 32.4246C121.125 32.8965 121.177 33.3159 121.229 33.6828C121.282 34.0498 121.334 34.4168 121.386 34.7313C121.438 35.0983 121.543 35.4128 121.648 35.7274C121.752 36.0419 121.857 36.3565 122.013 36.671C122.17 36.9856 122.327 37.3001 122.536 37.6147C122.693 37.9292 122.902 38.2438 123.164 38.5583C123.425 38.9253 123.686 39.2398 124 39.6068V39.7117Z" fill="#181818"/>
</svg>
